<?xml version="1.0" encoding="utf-8" ?>
<svg xmlns="http://www.w3.org/2000/svg" xmlns:xlink="http://www.w3.org/1999/xlink" width="100" height="100">
	<path fill="#00B2BB" d="M50.5567 15.38C51.7559 16.7554 53.2569 17.9803 54.5784 19.2477C56.7095 21.2917 58.7808 23.404 60.8716 25.4892L80.6201 45.2444C85.0611 49.6577 89.6611 53.9803 93.894 58.5945C88.9468 58.2394 83.8018 58.4187 78.8363 58.462C79.147 61.066 78.9599 63.8829 78.9848 66.5116C79.0333 71.6339 79.1495 76.7677 78.996 81.8883C76.8512 79.4844 74.9958 76.8518 71.6853 76.1607C70.7423 76.6178 69.8821 77.1281 69.0061 77.7003C68.3809 78.8001 67.7588 79.7707 68.1061 81.0885C68.7686 83.6026 71.7135 85.3339 72.8821 87.7437C72.4646 88.0493 71.7086 88.0608 71.2071 88.075C66.5267 88.2072 61.786 87.9488 57.0985 87.9291Q39.6337 87.8102 22.1691 87.9614C22.4494 82.1834 22.2054 76.2842 22.1959 70.4944C22.1906 67.307 22.6287 61.3219 21.9372 58.4749C20.4447 57.9183 9.27182 58.5122 7.03428 58.6999C9.3424 55.9437 12.2107 53.4534 14.761 50.9116L29.691 35.9833L43.141 22.5219C45.5331 20.1312 47.8741 17.4319 50.5567 15.38Z"/>
	<path fill="#FBFBFB" d="M66.9254 72.363C68.447 73.7462 69.5473 75.8614 71.6853 76.1607C70.7423 76.6178 69.8821 77.1281 69.0061 77.7003C68.3809 78.8001 67.7588 79.7707 68.1061 81.0885C68.7686 83.6026 71.7135 85.3339 72.8821 87.7437C70.4412 85.9609 68.2441 83.5104 66.0534 81.4158L67.4226 79.5228C66.0597 78.3272 64.8058 76.9572 63.5231 75.6739C64.7333 74.6617 65.8194 73.4869 66.9254 72.363Z"/>
	<path fill="#FBFBFB" d="M47.7514 41.5747Q48.1868 41.5076 48.6249 41.4621Q49.0631 41.4165 49.503 41.3925Q49.9428 41.3685 50.3834 41.3662Q50.8239 41.3638 51.264 41.3831Q51.7041 41.4024 52.1427 41.4434Q52.5813 41.4843 53.0174 41.5467Q53.4534 41.6091 53.8859 41.6929Q54.3184 41.7766 54.7463 41.8816Q55.1741 41.9865 55.5963 42.1123Q56.0184 42.2381 56.4339 42.3846Q56.8494 42.531 57.2572 42.6976Q57.6649 42.8643 58.064 43.0508Q58.4631 43.2373 58.8526 43.4432Q59.242 43.649 59.6209 43.8738Q59.9998 44.0986 60.3671 44.3417Q60.7345 44.5848 61.0894 44.8457Q61.4444 45.1066 61.7861 45.3846Q62.1278 45.6626 62.4555 45.9571Q62.7831 46.2515 63.0959 46.5617Q63.4087 46.8719 63.7058 47.1971Q64.003 47.5223 64.2838 47.8618Q64.5646 48.2012 64.8284 48.554Q65.0922 48.9068 65.3383 49.2721Q65.5845 49.6375 65.8124 50.0145Q66.0402 50.3915 66.2493 50.7792Q66.4584 51.1669 66.6482 51.5645Q66.838 51.962 67.008 52.3684Q67.178 52.7748 67.3278 53.1891Q67.4777 53.6033 67.6069 54.0245Q67.7363 54.4456 67.8447 54.8725Q67.9531 55.2995 68.0405 55.7313Q68.1278 56.1631 68.1938 56.5986Q68.2598 57.0342 68.3044 57.4724Q68.3489 57.9107 68.3718 58.3506Q68.3947 58.7905 68.396 59.2311Q68.3973 59.6716 68.377 60.1116Q68.3566 60.5517 68.3146 60.9902Q68.2727 61.4287 68.2092 61.8646Q68.1457 62.3006 68.0609 62.7329Q67.9761 63.1651 67.8702 63.5927Q67.7642 64.0203 67.6374 64.4422Q67.5105 64.8641 67.3631 65.2792Q67.2157 65.6943 67.0481 66.1017Q66.8804 66.5091 66.693 66.9077Q66.5055 67.3064 66.2987 67.6953Q66.0919 68.0843 65.8662 68.4626Q65.6405 68.8409 65.3965 69.2077Q65.1525 69.5744 64.8908 69.9288Q64.6291 70.2831 64.3502 70.6242Q64.0714 70.9652 63.7762 71.2922Q63.4809 71.6191 63.1699 71.9311Q62.859 72.2432 62.5331 72.5395Q62.2071 72.8359 61.8671 73.1159Q61.527 73.3959 61.1735 73.6589Q60.8201 73.9218 60.4542 74.1671Q60.0882 74.4123 59.7107 74.6393Q59.3331 74.8663 58.9449 75.0744Q58.5566 75.2826 58.1586 75.4714Q57.7606 75.6602 57.3538 75.8293Q56.947 75.9983 56.5324 76.1471Q56.1178 76.296 55.6964 76.4243Q55.2749 76.5525 54.8477 76.66Q54.4205 76.7674 53.9885 76.8537Q53.5565 76.9399 53.1208 77.0049Q52.6864 77.0697 52.2494 77.1131Q51.8124 77.1565 51.3737 77.1784Q50.9351 77.2003 50.4959 77.2008Q50.0568 77.2012 49.6181 77.1801Q49.1794 77.159 48.7423 77.1165Q48.3052 77.0739 47.8707 77.01Q47.4362 76.946 47.0054 76.8609Q46.5745 76.7758 46.1484 76.6696Q45.7222 76.5635 45.3018 76.4366Q44.8813 76.3097 44.4676 76.1624Q44.0539 76.015 43.6479 75.8476Q43.2419 75.6802 42.8445 75.4931Q42.4472 75.306 42.0595 75.0996Q41.6719 74.8932 41.2948 74.6681Q40.9177 74.443 40.5521 74.1997Q40.1864 73.9564 39.8332 73.6954Q39.4799 73.4345 39.1399 73.1566Q38.7998 72.8787 38.4738 72.5844Q38.1478 72.2902 37.8366 71.9803Q37.5254 71.6704 37.2297 71.3457Q36.934 71.0209 36.6546 70.6821Q36.3752 70.3432 36.1128 69.9911Q35.8503 69.639 35.6054 69.2744Q35.3605 68.9099 35.1338 68.5337Q34.9071 68.1576 34.699 67.7708Q34.491 67.3841 34.3021 66.9876Q34.1133 66.5911 33.9441 66.1858Q33.7749 65.7805 33.6258 65.3674Q33.4767 64.9543 33.348 64.5344Q33.2193 64.1145 33.1113 63.6889Q33.0033 63.2632 32.9163 62.8327Q32.8293 62.4022 32.7635 61.968Q32.6977 61.5338 32.6532 61.0969Q32.6088 60.6599 32.5858 60.2214Q32.5628 59.7828 32.5613 59.3436Q32.5599 58.9045 32.5799 58.4657Q32.5999 58.027 32.6414 57.5898Q32.683 57.1526 32.7458 56.718Q32.8087 56.2833 32.8928 55.8523Q32.9769 55.4212 33.082 54.9948Q33.1871 54.5684 33.313 54.1477Q33.4389 53.7269 33.5852 53.3128Q33.7316 52.8988 33.898 52.4924Q34.0645 52.0859 34.2507 51.6882Q34.4368 51.2904 34.6423 50.9022Q34.8477 50.5141 35.0719 50.1364Q35.2961 49.7588 35.5385 49.3926Q35.781 49.0264 36.041 48.6725Q36.3011 48.3186 36.5782 47.9779Q36.8553 47.6372 37.1488 47.3105Q37.4423 46.9838 37.7514 46.6718Q38.0605 46.3598 38.3845 46.0634Q38.7086 45.767 39.0467 45.4868Q39.3849 45.2066 39.7364 44.9433Q40.0879 44.68 40.4519 44.4342Q40.8158 44.1884 41.1914 43.9608Q41.567 43.7331 41.9532 43.5242Q42.3395 43.3152 42.7356 43.1254Q43.1316 42.9356 43.5365 42.7655Q43.9414 42.5953 44.3541 42.4452Q44.7668 42.2951 45.1864 42.1653Q45.606 42.0356 46.0314 41.9266Q46.4568 41.8176 46.8871 41.7296Q47.3173 41.6415 47.7514 41.5747Z"/>
	<path fill="#00B2BB" d="M49.0245 46.4276Q49.3397 46.3918 49.6563 46.3714Q49.9729 46.3511 50.2901 46.3464Q50.6073 46.3417 50.9244 46.3526Q51.2414 46.3634 51.5576 46.3899Q51.8737 46.4163 52.1882 46.4582Q52.5026 46.5002 52.8146 46.5575Q53.1267 46.6149 53.4355 46.6875Q53.7443 46.7601 54.0492 46.8478Q54.354 46.9355 54.6543 47.0381Q54.9545 47.1406 55.2493 47.2578Q55.5441 47.3751 55.8327 47.5066Q56.1214 47.6382 56.4033 47.7837Q56.6852 47.9293 56.9595 48.0886Q57.2339 48.2478 57.5001 48.4204Q57.7663 48.5929 58.0237 48.7783Q58.2812 48.9638 58.5291 49.1616Q58.7771 49.3595 59.0151 49.5692Q59.2531 49.779 59.4804 50.0003Q59.7078 50.2215 59.924 50.4537Q60.1402 50.6858 60.3448 50.9283Q60.5494 51.1708 60.7417 51.423Q60.9341 51.6753 61.1139 51.9367Q61.2936 52.1981 61.4603 52.468Q61.627 52.7379 61.7803 53.0157Q61.9335 53.2935 62.0729 53.5785Q62.2123 53.8634 62.3375 54.1549Q62.4627 54.4464 62.5735 54.7437Q62.6842 55.041 62.7802 55.3433Q62.8762 55.6457 62.9573 55.9524Q63.0383 56.2591 63.1041 56.5695Q63.17 56.8798 63.2205 57.193Q63.271 57.5062 63.3061 57.8215Q63.3412 58.1368 63.3607 58.4534Q63.3802 58.7701 63.3842 59.0873Q63.3881 59.4045 63.3765 59.7215Q63.3649 60.0386 63.3376 60.3546Q63.3104 60.6707 63.2677 60.9851Q63.225 61.2994 63.1669 61.6113Q63.1088 61.9232 63.0354 62.2318Q62.9621 62.5405 62.8736 62.8451Q62.7852 63.1498 62.6819 63.4497Q62.5786 63.7497 62.4606 64.0442Q62.3427 64.3387 62.2104 64.6271Q62.0782 64.9154 61.9319 65.1969Q61.7857 65.4785 61.6257 65.7524Q61.4658 66.0264 61.2926 66.2922Q61.1194 66.558 60.9334 66.815Q60.7473 67.0719 60.5489 67.3194Q60.3504 67.5669 60.14 67.8044Q59.9296 68.0418 59.7079 68.2687Q59.4861 68.4955 59.2534 68.7112Q59.0207 68.9268 58.7777 69.1308Q58.5347 69.3347 58.282 69.5265Q58.0293 69.7183 57.7675 69.8974Q57.5056 70.0765 57.2353 70.2425Q56.965 70.4086 56.6868 70.5611Q56.4087 70.7137 56.1233 70.8524Q55.838 70.9911 55.5462 71.1156Q55.2545 71.2401 54.9569 71.3501Q54.6593 71.4601 54.3567 71.5554Q54.0541 71.6507 53.7472 71.7309Q53.4403 71.8112 53.1298 71.8763Q52.8193 71.9414 52.506 71.9911Q52.1927 72.0409 51.8773 72.0752Q51.5629 72.1094 51.2472 72.1282Q50.9315 72.1469 50.6153 72.1502Q50.299 72.1534 49.983 72.1412Q49.667 72.129 49.3519 72.1012Q49.0369 72.0735 48.7236 72.0304Q48.4103 71.9873 48.0995 71.9289Q47.7887 71.8705 47.4811 71.797Q47.1735 71.7234 46.8699 71.6349Q46.5663 71.5463 46.2674 71.443Q45.9685 71.3397 45.675 71.2219Q45.3815 71.1041 45.0941 70.972Q44.8068 70.8399 44.5262 70.694Q44.2457 70.548 43.9726 70.3884Q43.6996 70.2289 43.4347 70.0561Q43.1698 69.8834 42.9136 69.6979Q42.6575 69.5124 42.4108 69.3145Q42.164 69.1167 41.9273 68.907Q41.6905 68.6973 41.4643 68.4763Q41.2381 68.2553 41.023 68.0234Q40.808 67.7916 40.6045 67.5495Q40.401 67.3074 40.2096 67.0556Q40.0183 66.8038 39.8395 66.5429Q39.6607 66.2821 39.4949 66.0128Q39.329 65.7435 39.1766 65.4664Q39.0242 65.1893 38.8856 64.905Q38.7469 64.6208 38.6223 64.3301Q38.4978 64.0394 38.3876 63.743Q38.2774 63.4465 38.1819 63.145Q38.0864 62.8436 38.0058 62.5377Q37.9251 62.2319 37.8596 61.9226Q37.794 61.6132 37.7437 61.3009Q37.6934 60.9887 37.6584 60.6744Q37.6234 60.3601 37.6039 60.0444Q37.5844 59.7288 37.5804 59.4125Q37.5763 59.0963 37.5878 58.7803Q37.5993 58.4642 37.6262 58.1491Q37.6531 57.834 37.6954 57.5206Q37.7378 57.2072 37.7954 56.8962Q37.8531 56.5853 37.9259 56.2775Q37.9987 55.9697 38.0865 55.6659Q38.1743 55.3621 38.2768 55.0629Q38.3794 54.7637 38.4965 54.47Q38.6136 54.1762 38.745 53.8885Q38.8764 53.6008 39.0217 53.3199Q39.167 53.039 39.3258 52.7656Q39.4847 52.4921 39.6568 52.2268Q39.8289 51.9614 40.0138 51.7049Q40.1987 51.4483 40.3959 51.201Q40.5931 50.9538 40.8023 50.7166Q41.0114 50.4793 41.2318 50.2526Q41.4523 50.0258 41.6837 49.8102Q41.915 49.5945 42.1566 49.3905Q42.3982 49.1864 42.6495 48.9944Q42.9008 48.8024 43.1613 48.623Q43.4217 48.4436 43.6906 48.2771Q43.9595 48.1106 44.2362 47.9575Q44.5129 47.8044 44.7968 47.6651Q45.0807 47.5257 45.3711 47.4005Q45.6615 47.2752 45.9577 47.1643Q46.2539 47.0534 46.5551 46.9571Q46.8564 46.8609 47.162 46.7795Q47.4676 46.6981 47.7768 46.6318Q48.0861 46.5655 48.3982 46.5144Q48.7103 46.4633 49.0245 46.4276Z"/>
	<path fill="#FBFBFB" d="M49.6544 49.5894C51.121 49.5821 52.5408 50.0244 53.9393 50.4148C51.8607 50.836 49.8114 51.1688 47.9067 52.1458C44.8905 53.693 43.1895 56.3055 42.1804 59.456C41.9579 60.5437 41.6436 61.6194 41.3621 62.6934C41.177 61.8684 40.9795 61.0304 40.8767 60.1909Q40.8157 59.7274 40.8007 59.2601Q40.7857 58.7929 40.8169 58.3264Q40.8482 57.8599 40.9253 57.3988Q41.0024 56.9377 41.1247 56.4865Q41.247 56.0353 41.4133 55.5983Q41.5795 55.1614 41.7881 54.743Q41.9967 54.3246 42.2456 53.9288Q42.4945 53.5331 42.7812 53.1638C44.5532 50.9131 46.877 49.9259 49.6544 49.5894Z"/>
</svg>
