<svg width="20" height="19" viewBox="0 0 20 19" fill="none" xmlns="http://www.w3.org/2000/svg">
<path d="M19.5002 9.71114C19.5002 8.93004 19.4355 8.36004 19.2955 7.76894H10.194V11.2945H15.5364C15.4287 12.1706 14.8471 13.49 13.5546 14.3767L13.5364 14.4947L16.4142 16.6794L16.6135 16.6989C18.4446 15.0417 19.5002 12.6033 19.5002 9.71114Z" fill="#4285F4"/>
<path d="M10.1939 19C12.8112 19 15.0085 18.1555 16.6134 16.6989L13.5545 14.3766C12.7359 14.936 11.6372 15.3266 10.1939 15.3266C7.63046 15.3266 5.45474 13.6694 4.67915 11.3789L4.56547 11.3883L1.57317 13.6578L1.53404 13.7644C3.12813 16.8677 6.40251 19 10.1939 19Z" fill="#34A853"/>
<path d="M4.6791 11.3788C4.47445 10.7877 4.35602 10.1543 4.35602 9.49989C4.35602 8.8454 4.47445 8.21209 4.66833 7.62099L4.66291 7.4951L1.63312 5.18919L1.53399 5.2354C0.876988 6.5232 0.5 7.96934 0.5 9.49989C0.5 11.0304 0.876988 12.4765 1.53399 13.7643L4.6791 11.3788Z" fill="#FBBC05"/>
<path d="M10.1939 3.67331C12.0142 3.67331 13.2421 4.44386 13.9422 5.08779L16.678 2.47C14.9978 0.939449 12.8112 0 10.1939 0C6.40251 0 3.12813 2.13221 1.53404 5.23552L4.66838 7.6211C5.45474 5.33055 7.63046 3.67331 10.1939 3.67331Z" fill="#EB4335"/>
</svg>
